<svg width="16" height="16" viewBox="0 0 16 16" fill="none" xmlns="http://www.w3.org/2000/svg">
<path d="M13.0001 8.7175L8.01072 13.7069C7.91786 13.7998 7.80761 13.8734 7.68627 13.9237C7.56493 13.974 7.43487 13.9998 7.30353 13.9998C7.17219 13.9998 7.04213 13.974 6.92079 13.9237C6.79945 13.8734 6.6892 13.7998 6.59634 13.7069L1.29322 8.40375C1.20034 8.31089 1.12666 8.20064 1.07639 8.0793C1.02612 7.95796 1.00024 7.8279 1.00024 7.69656C1.00024 7.56522 1.02612 7.43517 1.07639 7.31383C1.12666 7.19249 1.20034 7.08224 1.29322 6.98938L7.28259 1L14.5001 8.2175L13.0001 8.7175Z" stroke="#222530" stroke-linecap="round" stroke-linejoin="round"/>
<path d="M7.75 8.5C8.44036 8.5 9 7.94036 9 7.25C9 6.55964 8.44036 6 7.75 6C7.05964 6 6.5 6.55964 6.5 7.25C6.5 7.94036 7.05964 8.5 7.75 8.5Z" stroke="#222530" stroke-linecap="round" stroke-linejoin="round"/>
<path d="M6.86614 6.36625L2.49927 2" stroke="#222530" stroke-linecap="round" stroke-linejoin="round"/>
<path d="M15.5 13C15.5 13.2652 15.3946 13.5196 15.2071 13.7071C15.0196 13.8946 14.7652 14 14.5 14C14.2348 14 13.9804 13.8946 13.7929 13.7071C13.6054 13.5196 13.5 13.2652 13.5 13C13.5 12 14.5 10.5 14.5 10.5C14.5 10.5 15.5 12 15.5 13Z" stroke="#222530" stroke-linecap="round" stroke-linejoin="round"/>
</svg>
